<svg class="img-fluid" id="outputsvg" xmlns="http://www.w3.org/2000/svg" style="transform: none; transform-origin: 50% 50%; cursor: move; max-height: none; transition: none;" width="176" height="119" viewBox="0 0 1760 1190"><g id="lqNf7ySHP17HUGA5WJMMVj" fill="rgb(0,117,143)" style="transform: none;"><g style="transform: none;"><path id="pqoooZtXF" d="M487 1163 c-15 -15 -6 -33 17 -33 89 0 88 -39 -4 -312 -8 -26 -7 -28 20 -28 31 0 28 -6 80 175 l18 60 12 -30 c7 -16 20 -68 30 -115 16 -80 19 -85 44 -88 26 -3 27 -2 20 35 -13 75 -64 221 -92 262 -16 23 -42 51 -58 62 -29 19 -74 25 -87 12z"></path><path id="pAwGu0Iky" d="M55 993 c3 -43 8 -109 11 -148 2 -38 7 -89 10 -112 6 -42 7 -43 45 -43 l38 0 41 128 c22 70 43 134 47 142 3 8 27 -48 52 -125 l48 -140 36 -3 c31 -3 37 0 41 20 7 33 26 258 26 312 0 44 -1 46 -29 46 l-28 0 -7 -142 c-4 -79 -11 -146 -15 -151 -4 -4 -29 60 -55 143 -43 135 -50 150 -70 150 -20 0 -27 -16 -71 -152 l-49 -153 -7 45 c-4 25 -8 93 -8 153 l-1 107 -30 0 -31 0 6 -77z"></path><path id="p16nSgzMd5" d="M1644 648 c-48 -29 -81 -64 -70 -75 2 -3 29 -8 58 -12 l53 -6 -44 -33 c-24 -18 -62 -37 -83 -44 -34 -10 -42 -19 -69 -77 -65 -139 -75 -157 -125 -207 -56 -55 -124 -94 -168 -94 -15 0 -39 -9 -54 -19 -69 -49 -105 -28 -58 34 15 19 34 54 42 77 8 23 23 57 34 75 16 27 17 38 8 63 -14 41 -5 137 14 156 14 14 16 11 27 -30 13 -53 27 -65 36 -34 4 13 20 46 37 73 24 41 25 45 6 25 -13 -14 -31 -37 -40 -50 l-17 -25 0 26 c-1 15 -8 33 -17 40 -14 11 -20 10 -40 -14 -29 -33 -39 -100 -24 -156 9 -34 9 -47 -3 -64 -7 -12 -22 -44 -32 -72 -11 -27 -29 -64 -42 -81 -28 -37 -30 -70 -4 -83 14 -8 30 -5 67 14 27 14 58 25 70 25 72 0 212 119 260 221 62 134 68 143 112 165 48 25 122 82 122 93 0 5 -24 12 -52 17 l-53 9 24 20 c48 40 86 74 81 74 -3 -1 -28 -14 -56 -31z"></path></g></g><g id="l3rjXMrG7vvzRmBCAJj3vuz" fill="rgb(242,145,17)" style="transform: none;"><g style="transform: none;"><path id="p13QsgBwKT" d="M1295 1095 c-29 -18 -54 -25 -93 -25 -110 0 -147 -46 -147 -185 0 -100 15 -139 68 -179 43 -32 136 -30 172 4 36 34 45 52 55 113 10 67 -3 149 -31 189 -24 33 -24 33 26 63 13 8 14 13 3 27 -12 16 -16 15 -53 -7z m-35 -85 c27 -27 33 -56 29 -154 -3 -64 -8 -89 -23 -104 -42 -48 -124 -31 -145 29 -15 45 -14 153 3 193 8 19 22 39 33 45 30 17 81 13 103 -9z"></path><path id="ps8m5gcuH" d="M808 1054 c-36 -19 -28 -47 9 -33 38 14 100 11 117 -7 9 -8 16 -28 16 -44 0 -30 -3 -34 -95 -93 -55 -36 -80 -75 -70 -114 9 -36 47 -71 87 -78 45 -9 118 11 118 31 0 13 -9 14 -54 9 -47 -6 -57 -4 -75 14 -41 41 -28 62 84 134 63 41 81 74 65 123 -16 48 -61 74 -125 74 -27 -1 -62 -7 -77 -16z"></path><path id="pgEcBoxPW" d="M1420 880 l0 -190 25 0 25 0 0 170 0 170 65 0 c58 0 65 2 65 20 0 19 -7 20 -90 20 l-90 0 0 -190z"></path></g></g></svg>