<svg xmlns="http://www.w3.org/2000/svg" viewBox="0 0 256 154" width="200" height="200" role="img" aria-label="Tailwind CSS logo">
  <defs>
    <linearGradient x1="0%" y1="0%" x2="100%" y2="100%" id="tailwind-gradient">
      <stop offset="0%" stop-color="#2298BD"/>
      <stop offset="100%" stop-color="#0ED7B5"/>
    </linearGradient>
  </defs>
  <path fill="url(#tailwind-gradient)" d="M128 0C93.867 0 72.533 17.333 64 52c12.8-17.333 27.733-23.467 44.8-18.4 9.732 2.933 16.706 11.427 24.906 20.48C144.533 70.933 161.067 80 192 80c34.133 0 55.467-17.333 64-52-12.8 17.333-27.733 23.467-44.8 18.4-9.732-2.933-16.706-11.427-24.906-20.48C175.467 9.067 158.933 0 128 0zM64 80c-34.133 0-55.467 17.333-64 52 12.8-17.333 27.733-23.467 44.8-18.4 9.732 2.933 16.706 11.427 24.906 20.48C80.533 150.933 97.067 160 128 160c34.133 0 55.467-17.333 64-52-12.8 17.333-27.733 23.467-44.8 18.4-9.732-2.933-16.706-11.427-24.906-20.48C111.467 89.067 94.933 80 64 80z"/>
</svg>